<svg xmlns="http://www.w3.org/2000/svg" xmlns:xlink="http://www.w3.org/1999/xlink" width="500" zoomAndPan="magnify" viewBox="0 0 375 374.999991" height="500" preserveAspectRatio="xMidYMid meet" version="1.0"><defs><clipPath id="e8292f2425"><path d="M 57.925781 64.023438 L 345.585938 64.023438 L 345.585938 351.683594 L 57.925781 351.683594 Z M 57.925781 64.023438 " clip-rule="nonzero"/></clipPath><clipPath id="731fdc94a8"><path d="M 201.757812 64.023438 C 122.320312 64.023438 57.925781 128.417969 57.925781 207.855469 C 57.925781 287.289062 122.320312 351.683594 201.757812 351.683594 C 281.191406 351.683594 345.585938 287.289062 345.585938 207.855469 C 345.585938 128.417969 281.191406 64.023438 201.757812 64.023438 " clip-rule="nonzero"/></clipPath><clipPath id="110b98f963"><path d="M 97.589844 132.25 L 306 132.25 L 306 313.75 L 97.589844 313.75 Z M 97.589844 132.25 " clip-rule="nonzero"/></clipPath></defs><g clip-path="url(#e8292f2425)"><g clip-path="url(#731fdc94a8)"><path fill="#000000" d="M 57.925781 64.023438 L 345.585938 64.023438 L 345.585938 351.683594 L 57.925781 351.683594 Z M 57.925781 64.023438 " fill-opacity="1" fill-rule="nonzero"/></g></g><path fill="#ffffff" d="M 230.207031 199.957031 L 272.964844 157.175781 L 277.714844 161.929688 L 234.960938 204.710938 Z M 230.207031 199.957031 " fill-opacity="1" fill-rule="nonzero"/><path fill="#ffffff" d="M 226.363281 205.621094 L 223.472656 211.4375 L 229.285156 208.546875 Z M 226.363281 205.621094 " fill-opacity="1" fill-rule="nonzero"/><g clip-path="url(#110b98f963)"><path fill="#ffffff" d="M 97.707031 266.695312 L 181.683594 266.695312 L 168.246094 313.75 L 221.996094 266.695312 L 305.972656 266.695312 L 305.972656 132.25 L 97.707031 132.25 Z M 212.957031 217.453125 L 222.429688 198.429688 C 222.605469 198.121094 222.820312 197.839844 223.070312 197.589844 L 275.339844 145.292969 C 275.800781 144.796875 276.304688 144.351562 276.855469 143.957031 C 277.40625 143.566406 277.992188 143.230469 278.609375 142.953125 C 279.226562 142.679688 279.867188 142.46875 280.527344 142.320312 C 281.1875 142.175781 281.855469 142.09375 282.53125 142.082031 C 283.210938 142.070312 283.878906 142.128906 284.546875 142.25 C 285.210938 142.375 285.859375 142.5625 286.484375 142.816406 C 287.113281 143.070312 287.707031 143.382812 288.273438 143.757812 C 288.835938 144.128906 289.359375 144.554688 289.835938 145.035156 C 290.316406 145.515625 290.742188 146.035156 291.113281 146.601562 C 291.488281 147.164062 291.800781 147.761719 292.054688 148.390625 C 292.308594 149.015625 292.496094 149.664062 292.621094 150.328125 C 292.742188 150.996094 292.796875 151.667969 292.785156 152.34375 C 292.773438 153.019531 292.695312 153.6875 292.550781 154.351562 C 292.402344 155.011719 292.191406 155.652344 291.914062 156.269531 C 291.640625 156.886719 291.304688 157.472656 290.914062 158.023438 C 290.519531 158.574219 290.074219 159.082031 289.582031 159.542969 L 284.84375 164.316406 L 237.3125 211.839844 C 237.054688 212.101562 236.765625 212.3125 236.4375 212.480469 L 217.460938 221.957031 C 217.144531 222.121094 216.8125 222.226562 216.460938 222.285156 C 216.113281 222.339844 215.761719 222.34375 215.414062 222.289062 C 215.0625 222.234375 214.730469 222.125 214.414062 221.964844 C 214.097656 221.808594 213.8125 221.601562 213.5625 221.351562 C 213.3125 221.101562 213.109375 220.816406 212.949219 220.5 C 212.789062 220.183594 212.683594 219.851562 212.628906 219.5 C 212.574219 219.152344 212.574219 218.800781 212.632812 218.453125 C 212.6875 218.101562 212.796875 217.769531 212.957031 217.453125 Z M 117.859375 159.140625 L 164.886719 159.140625 C 165.335938 159.140625 165.761719 159.222656 166.175781 159.394531 C 166.585938 159.566406 166.949219 159.808594 167.265625 160.125 C 167.578125 160.4375 167.820312 160.800781 167.992188 161.214844 C 168.164062 161.625 168.246094 162.054688 168.246094 162.5 C 168.246094 162.945312 168.164062 163.375 167.992188 163.785156 C 167.820312 164.199219 167.578125 164.5625 167.265625 164.875 C 166.949219 165.191406 166.585938 165.433594 166.175781 165.605469 C 165.761719 165.777344 165.335938 165.859375 164.886719 165.859375 L 117.859375 165.859375 C 117.414062 165.859375 116.984375 165.777344 116.574219 165.605469 C 116.164062 165.433594 115.800781 165.191406 115.484375 164.875 C 115.171875 164.5625 114.925781 164.199219 114.757812 163.785156 C 114.585938 163.375 114.5 162.945312 114.5 162.5 C 114.5 162.054688 114.585938 161.625 114.757812 161.214844 C 114.925781 160.800781 115.171875 160.4375 115.484375 160.125 C 115.800781 159.808594 116.164062 159.566406 116.574219 159.394531 C 116.984375 159.222656 117.414062 159.140625 117.859375 159.140625 Z M 117.859375 182.667969 L 178.324219 182.667969 C 178.769531 182.667969 179.199219 182.75 179.609375 182.921875 C 180.023438 183.09375 180.386719 183.335938 180.699219 183.652344 C 181.015625 183.964844 181.257812 184.328125 181.429688 184.742188 C 181.597656 185.152344 181.683594 185.582031 181.683594 186.027344 C 181.683594 186.472656 181.597656 186.902344 181.429688 187.3125 C 181.257812 187.726562 181.015625 188.089844 180.699219 188.40625 C 180.386719 188.71875 180.023438 188.960938 179.609375 189.132812 C 179.199219 189.304688 178.769531 189.390625 178.324219 189.390625 L 117.859375 189.390625 C 117.414062 189.390625 116.984375 189.304688 116.574219 189.132812 C 116.164062 188.960938 115.800781 188.71875 115.484375 188.40625 C 115.171875 188.089844 114.925781 187.726562 114.757812 187.3125 C 114.585938 186.902344 114.5 186.472656 114.5 186.027344 C 114.5 185.582031 114.585938 185.152344 114.757812 184.742188 C 114.925781 184.328125 115.171875 183.964844 115.484375 183.652344 C 115.800781 183.335938 116.164062 183.09375 116.574219 182.921875 C 116.984375 182.75 117.414062 182.667969 117.859375 182.667969 Z M 117.859375 206.195312 L 201.839844 206.195312 C 202.285156 206.195312 202.714844 206.28125 203.125 206.449219 C 203.535156 206.621094 203.898438 206.863281 204.214844 207.179688 C 204.53125 207.492188 204.773438 207.859375 204.941406 208.269531 C 205.113281 208.679688 205.199219 209.109375 205.199219 209.554688 C 205.199219 210 205.113281 210.429688 204.941406 210.839844 C 204.773438 211.253906 204.53125 211.617188 204.214844 211.933594 C 203.898438 212.246094 203.535156 212.488281 203.125 212.660156 C 202.714844 212.832031 202.285156 212.917969 201.839844 212.917969 L 117.859375 212.917969 C 117.414062 212.917969 116.984375 212.832031 116.574219 212.660156 C 116.164062 212.488281 115.800781 212.246094 115.484375 211.933594 C 115.171875 211.617188 114.925781 211.253906 114.757812 210.839844 C 114.585938 210.429688 114.5 210 114.5 209.554688 C 114.5 209.109375 114.585938 208.679688 114.757812 208.269531 C 114.925781 207.859375 115.171875 207.492188 115.484375 207.179688 C 115.800781 206.863281 116.164062 206.621094 116.574219 206.449219 C 116.984375 206.28125 117.414062 206.195312 117.859375 206.195312 Z M 117.859375 229.722656 L 232.070312 229.722656 C 232.515625 229.722656 232.945312 229.808594 233.359375 229.976562 C 233.769531 230.148438 234.132812 230.390625 234.445312 230.707031 C 234.761719 231.023438 235.003906 231.386719 235.175781 231.796875 C 235.347656 232.207031 235.429688 232.636719 235.429688 233.082031 C 235.429688 233.527344 235.347656 233.957031 235.175781 234.371094 C 235.003906 234.78125 234.761719 235.144531 234.445312 235.460938 C 234.132812 235.773438 233.769531 236.019531 233.359375 236.1875 C 232.945312 236.359375 232.515625 236.445312 232.070312 236.445312 L 117.859375 236.445312 C 117.414062 236.445312 116.984375 236.359375 116.574219 236.1875 C 116.164062 236.019531 115.800781 235.773438 115.484375 235.460938 C 115.171875 235.144531 114.925781 234.78125 114.757812 234.371094 C 114.585938 233.957031 114.5 233.527344 114.5 233.082031 C 114.5 232.636719 114.585938 232.207031 114.757812 231.796875 C 114.925781 231.386719 115.171875 231.023438 115.484375 230.707031 C 115.800781 230.390625 116.164062 230.148438 116.574219 229.976562 C 116.984375 229.808594 117.414062 229.722656 117.859375 229.722656 Z M 117.859375 229.722656 " fill-opacity="1" fill-rule="nonzero"/></g><path fill="#ffffff" d="M 284.84375 154.804688 C 285.164062 154.488281 285.40625 154.121094 285.578125 153.710938 C 285.753906 153.296875 285.839844 152.863281 285.839844 152.417969 C 285.839844 151.96875 285.753906 151.539062 285.578125 151.125 C 285.40625 150.710938 285.164062 150.347656 284.84375 150.03125 C 284.527344 149.710938 284.164062 149.46875 283.75 149.292969 C 283.339844 149.121094 282.90625 149.035156 282.460938 149.035156 C 282.011719 149.035156 281.582031 149.121094 281.167969 149.292969 C 280.753906 149.46875 280.390625 149.710938 280.074219 150.03125 L 277.722656 152.417969 L 282.460938 157.15625 Z M 284.84375 154.804688 " fill-opacity="1" fill-rule="nonzero"/></svg>