<svg xmlns="http://www.w3.org/2000/svg" xmlns:xlink="http://www.w3.org/1999/xlink" width="500" zoomAndPan="magnify" viewBox="0 0 375 374.999991" height="500" preserveAspectRatio="xMidYMid meet" version="1.0"><defs><g/><clipPath id="509f7e9c01"><path d="M 21.421875 21.421875 L 353.578125 21.421875 L 353.578125 353.578125 L 21.421875 353.578125 Z M 21.421875 21.421875 " clip-rule="nonzero"/></clipPath><clipPath id="e79ad37c54"><path d="M 187.5 21.421875 C 95.777344 21.421875 21.421875 95.777344 21.421875 187.5 C 21.421875 279.222656 95.777344 353.578125 187.5 353.578125 C 279.222656 353.578125 353.578125 279.222656 353.578125 187.5 C 353.578125 95.777344 279.222656 21.421875 187.5 21.421875 " clip-rule="nonzero"/></clipPath><clipPath id="e27b29ebc0"><path d="M 142.609375 129 L 278.675781 129 L 278.675781 226.75 L 142.609375 226.75 Z M 142.609375 129 " clip-rule="nonzero"/></clipPath><clipPath id="7f54acb577"><path d="M 139.246094 146.335938 L 235.253906 146.335938 L 235.253906 211.925781 L 139.246094 211.925781 Z M 139.246094 146.335938 " clip-rule="nonzero"/></clipPath><clipPath id="befc9a77e7"><path d="M 139.253906 46.5 L 276 46.5 L 276 178.3125 L 139.253906 178.3125 Z M 139.253906 46.5 " clip-rule="nonzero"/></clipPath><clipPath id="5126a31d9e"><path d="M 96 153 L 183 153 L 183 269 L 96 269 Z M 96 153 " clip-rule="nonzero"/></clipPath><clipPath id="2ff97f07db"><path d="M 102.449219 151.789062 L 182.066406 155.957031 L 176.03125 271.230469 L 96.414062 267.066406 Z M 102.449219 151.789062 " clip-rule="nonzero"/></clipPath><clipPath id="513494b9af"><path d="M 142.257812 153.871094 L 182.066406 155.957031 L 136.253906 268.554688 L 96.445312 266.46875 L 142.257812 153.871094 " clip-rule="nonzero"/></clipPath></defs><rect x="-37.5" width="450" fill="#ffffff" y="-37.499999" height="449.999989" fill-opacity="1"/><rect x="-37.5" width="450" fill="#ffffff" y="-37.499999" height="449.999989" fill-opacity="1"/><rect x="-37.5" width="450" fill="#000000" y="-37.499999" height="449.999989" fill-opacity="1"/><g clip-path="url(#509f7e9c01)"><g clip-path="url(#e79ad37c54)"><path fill="#cc7c01" d="M 21.421875 21.421875 L 353.578125 21.421875 L 353.578125 353.578125 L 21.421875 353.578125 Z M 21.421875 21.421875 " fill-opacity="1" fill-rule="nonzero"/></g></g><g clip-path="url(#e27b29ebc0)"><path fill="#000000" d="M 276.820312 165.15625 C 271.199219 143.261719 252.542969 129.160156 230.027344 129.144531 C 203.960938 129.125 177.890625 129.136719 151.828125 129.136719 L 162.039062 147.210938 C 184.714844 147.164062 207.378906 147.179688 230.054688 147.199219 C 237.535156 147.199219 244.273438 149.402344 249.953125 154.40625 C 258.796875 162.1875 261.484375 172.285156 260.308594 183.621094 C 258.964844 196.746094 250.390625 207.765625 238.6875 210.585938 C 233.726562 211.789062 228.386719 211.316406 223.246094 211.832031 C 220.335938 212.136719 218.855469 210.917969 217.480469 208.480469 C 208.007812 191.738281 198.386719 175.070312 188.8125 158.390625 C 187.070312 155.34375 185.164062 155.3125 183.4375 158.304688 C 180.894531 162.722656 178.355469 167.144531 175.8125 171.5625 C 165.078125 190.25 154.335938 208.929688 143.613281 227.628906 C 143.285156 228.203125 143.066406 228.835938 142.613281 229.847656 L 145.527344 229.847656 C 165.679688 229.847656 185.839844 229.890625 205.992188 229.777344 C 207.460938 229.765625 208.476562 230.082031 209.304688 230.800781 C 209.832031 231.242188 210.265625 231.835938 210.703125 232.609375 C 215.96875 241.953125 221.351562 251.230469 226.648438 260.5625 L 247.5 260.5625 C 245.011719 256.222656 242.628906 252.09375 240.265625 247.96875 C 236.894531 242.109375 233.542969 236.242188 230.21875 230.414062 C 230.621094 230.097656 230.746094 229.917969 230.890625 229.910156 C 231.492188 229.851562 232.113281 229.832031 232.730469 229.808594 C 241.945312 229.421875 250.296875 226.523438 257.875 221.28125 C 276.59375 208.382812 281.859375 184.8125 276.820312 165.15625 Z M 173.636719 211.578125 C 177.804688 204.3125 181.824219 197.304688 186.078125 189.886719 C 188.476562 194.070312 190.792969 198.117188 193.125 202.1875 C 194.90625 205.28125 196.683594 208.394531 198.507812 211.578125 Z M 173.636719 211.578125 " fill-opacity="1" fill-rule="nonzero"/></g><g clip-path="url(#7f54acb577)"><path fill="#cc7c01" d="M 235.253906 146.335938 L 235.253906 211.699219 L 138.929688 211.699219 L 138.929688 146.335938 Z M 235.253906 146.335938 " fill-opacity="1" fill-rule="nonzero"/></g><g clip-path="url(#befc9a77e7)"><path fill="#000000" d="M 273.464844 82.703125 C 267.84375 60.808594 249.191406 46.707031 226.671875 46.691406 C 200.605469 46.671875 174.539062 46.683594 148.472656 46.683594 L 158.6875 64.757812 C 181.359375 64.710938 204.023438 64.722656 226.699219 64.746094 C 234.179688 64.746094 240.917969 66.949219 246.597656 71.953125 C 255.441406 79.734375 258.128906 89.832031 256.953125 101.167969 C 255.613281 114.292969 247.035156 125.3125 235.332031 128.132812 C 230.371094 129.335938 225.03125 128.863281 219.890625 129.378906 C 216.980469 129.683594 215.5 128.464844 214.125 126.027344 C 204.652344 109.285156 195.03125 92.617188 185.457031 75.9375 C 183.714844 72.890625 181.808594 72.859375 180.082031 75.851562 C 177.542969 80.269531 175 84.691406 172.457031 89.109375 C 161.722656 107.796875 150.980469 126.476562 140.257812 145.175781 C 139.929688 145.75 139.710938 146.378906 139.261719 147.394531 L 142.171875 147.394531 C 162.324219 147.394531 182.484375 147.4375 202.636719 147.324219 C 204.105469 147.3125 205.121094 147.628906 205.949219 148.347656 C 206.476562 148.789062 206.910156 149.382812 207.351562 150.15625 C 212.613281 159.5 217.996094 168.777344 223.292969 178.109375 L 244.144531 178.109375 C 241.660156 173.769531 239.273438 169.640625 236.910156 165.515625 C 233.539062 159.65625 230.191406 153.785156 226.863281 147.960938 C 227.265625 147.644531 227.390625 147.464844 227.535156 147.453125 C 228.140625 147.398438 228.757812 147.378906 229.375 147.355469 C 238.589844 146.96875 246.941406 144.070312 254.523438 138.828125 C 273.242188 125.929688 278.503906 102.359375 273.464844 82.703125 Z M 170.28125 129.125 C 174.449219 121.859375 178.46875 114.851562 182.722656 107.433594 C 185.121094 111.617188 187.4375 115.664062 189.769531 119.734375 C 191.550781 122.828125 193.328125 125.941406 195.152344 129.125 Z M 170.28125 129.125 " fill-opacity="1" fill-rule="nonzero"/></g><g clip-path="url(#5126a31d9e)"><g clip-path="url(#2ff97f07db)"><g clip-path="url(#513494b9af)"><path fill="#000000" d="M 102.449219 151.789062 L 182.066406 155.957031 L 176.074219 270.402344 L 96.460938 266.234375 Z M 102.449219 151.789062 " fill-opacity="1" fill-rule="nonzero"/></g></g></g><g fill="#000000" fill-opacity="1"><g transform="translate(29.92011, 179.717691)"><g><path d="M 7.847656 11.210938 L 10.726562 5.214844 L 13.785156 11.089844 L 19.152344 10.980469 L 12.832031 -0.320312 L 8.335938 -0.230469 L 2.628906 11.316406 Z M 7.847656 11.210938 "/></g></g></g><g fill="#000000" fill-opacity="1"><g transform="translate(30.082976, 194.733349)"><g><path d="M 22.230469 5.605469 L 0.0351562 0.238281 L 0.796875 5.671875 L 4.015625 6.402344 L 5.011719 13.5 L 2.117188 15.089844 L 2.921875 20.820312 L 22.738281 9.226562 Z M 14.109375 8.621094 L 9.820312 10.859375 L 9.480469 11.027344 L 9 7.582031 L 9.5 7.691406 Z M 14.109375 8.621094 "/></g></g></g><g fill="#000000" fill-opacity="1"><g transform="translate(33.339363, 216.858706)"><g><path d="M 23.675781 6.480469 L 13.578125 9.355469 L 21.6875 -0.5 L 20.601562 -4.308594 L 0.410156 1.441406 L 1.808594 6.347656 L 11.644531 3.542969 L 3.769531 13.238281 L 4.871094 17.105469 L 25.0625 11.355469 Z M 23.675781 6.480469 "/></g></g></g><g fill="#000000" fill-opacity="1"><g transform="translate(39.009752, 236.919963)"><g><path d="M 19.65625 3.960938 C 20.445312 5.710938 20.679688 8.269531 18.253906 10.1875 L 20.476562 15.109375 C 26.132812 11.601562 25.898438 5.617188 24.222656 1.898438 C 21.777344 -3.511719 15.726562 -5.914062 9.984375 -3.324219 C 4.269531 -0.742188 2.019531 5.273438 4.511719 10.796875 C 6.128906 14.378906 10.375 17.296875 14.644531 16.984375 C 15.488281 16.964844 17.058594 16.71875 19.269531 15.71875 L 13.988281 4.015625 L 9.808594 5.90625 L 12.449219 11.753906 C 10.625 11.359375 9.546875 10.070312 8.96875 8.785156 C 7.695312 5.96875 8.867188 2.875 12.121094 1.40625 C 15.207031 0.0117188 18.386719 1.144531 19.65625 3.960938 Z M 19.65625 3.960938 "/></g></g></g><g fill="#000000" fill-opacity="1"><g transform="translate(49.508761, 259.398674)"><g><path d="M 18.722656 -10.007812 L 0.796875 1.269531 L 8.175781 12.996094 L 12.367188 10.363281 L 7.734375 3 L 10.578125 1.210938 L 15.097656 8.394531 L 19.3125 5.746094 L 14.792969 -1.441406 L 17.28125 -3.003906 L 21.894531 4.332031 L 26.085938 1.695312 Z M 18.722656 -10.007812 "/></g></g></g><g fill="#000000" fill-opacity="1"><g transform="translate(59.04175, 274.123996)"><g/></g></g><g fill="#000000" fill-opacity="1"><g transform="translate(63.932616, 281.001287)"><g><path d="M 23.113281 -5.75 L 16.59375 -12.953125 L 1.027344 1.132812 L 7.507812 8.292969 C 10.464844 11.5625 14.527344 11 17.039062 8.726562 C 18.351562 7.539062 19.105469 5.644531 18.460938 3.234375 C 20.097656 3.613281 21.609375 3.09375 22.679688 2.128906 C 24.722656 0.277344 25.347656 -3.28125 23.113281 -5.75 Z M 16.964844 -1.234375 L 14.367188 -4.105469 L 16.546875 -6.078125 L 19.183594 -3.164062 C 19.726562 -2.5625 19.496094 -1.746094 18.960938 -1.261719 C 18.40625 -0.761719 17.566406 -0.570312 16.964844 -1.234375 Z M 11.109375 5.035156 L 8.03125 1.632812 L 10.855469 -0.925781 L 13.933594 2.476562 C 14.65625 3.277344 14.308594 4.324219 13.597656 4.964844 C 12.886719 5.609375 11.835938 5.835938 11.109375 5.035156 Z M 11.109375 5.035156 "/></g></g></g><g fill="#000000" fill-opacity="1"><g transform="translate(77.650163, 295.928467)"><g><path d="M 19.628906 -13 L 22.550781 -10.464844 L 23.003906 -10.988281 L 23.753906 -14.742188 L 19.652344 -18.292969 L 19.433594 -18.046875 Z M 14.089844 -15.8125 L 0.226562 0.195312 L 10.703125 9.265625 L 13.941406 5.527344 L 7.367188 -0.167969 L 9.566406 -2.707031 L 15.980469 2.847656 L 19.242188 -0.914062 L 12.824219 -6.472656 L 14.75 -8.691406 L 21.300781 -3.019531 L 24.539062 -6.761719 Z M 14.089844 -15.8125 "/></g></g></g><g fill="#000000" fill-opacity="1"><g transform="translate(91.000837, 307.58044)"><g><path d="M 19.773438 -12.085938 L 12.820312 -16.691406 L 1.226562 0.8125 L 8.175781 5.417969 C 13.949219 9.242188 19.734375 6.816406 22.632812 2.441406 C 25.53125 -1.933594 25.546875 -8.257812 19.773438 -12.085938 Z M 10.875 1.34375 L 8.175781 -0.445312 L 14.386719 -9.824219 L 17.089844 -8.035156 C 20.039062 -6.078125 19.933594 -2.660156 18.40625 -0.359375 C 16.882812 1.941406 13.828125 3.296875 10.875 1.34375 Z M 10.875 1.34375 "/></g></g></g><g fill="#000000" fill-opacity="1"><g transform="translate(109.784015, 319.747797)"><g><path d="M 15.679688 -17.558594 L 19.152344 -15.855469 L 19.457031 -16.472656 L 19.226562 -20.292969 L 14.355469 -22.6875 L 14.210938 -22.390625 Z M 9.605469 -18.871094 L 0.269531 0.132812 L 12.707031 6.242188 L 14.886719 1.800781 L 7.082031 -2.035156 L 8.5625 -5.050781 L 16.179688 -1.304688 L 18.375 -5.773438 L 10.757812 -9.519531 L 12.054688 -12.15625 L 19.835938 -8.332031 L 22.015625 -12.773438 Z M 9.605469 -18.871094 "/></g></g></g><g fill="#000000" fill-opacity="1"><g transform="translate(125.680087, 327.676472)"><g><path d="M 14.617188 -8.660156 L 11.976562 -18.121094 L 8.113281 -19.421875 L 1.421875 0.476562 L 6.28125 2.113281 L 9.609375 -7.78125 L 11.035156 -2.523438 L 13.738281 -1.613281 L 18.03125 -4.886719 L 14.726562 4.949219 L 19.558594 6.574219 L 26.25 -13.324219 L 22.441406 -14.605469 Z M 14.617188 -8.660156 "/></g></g></g><g fill="#000000" fill-opacity="1"><g transform="translate(148.168141, 335.012926)"><g><path d="M 14.878906 -18.597656 L 5.324219 -20.367188 L 1.503906 0.277344 L 11 2.035156 C 15.335938 2.835938 18.222656 -0.0742188 18.839844 -3.410156 C 19.160156 -5.148438 18.609375 -7.113281 16.632812 -8.636719 C 18.164062 -9.328125 19.050781 -10.660156 19.3125 -12.074219 C 19.816406 -14.789062 18.152344 -17.992188 14.878906 -18.597656 Z M 12.730469 -11.277344 L 8.925781 -11.984375 L 9.460938 -14.875 L 13.324219 -14.160156 C 14.121094 -14.011719 14.433594 -13.222656 14.300781 -12.515625 C 14.164062 -11.777344 13.617188 -11.117188 12.730469 -11.277344 Z M 11.882812 -2.742188 L 7.371094 -3.578125 L 8.066406 -7.324219 L 12.578125 -6.488281 C 13.640625 -6.292969 13.996094 -5.25 13.820312 -4.304688 C 13.644531 -3.363281 12.945312 -2.546875 11.882812 -2.742188 Z M 11.882812 -2.742188 "/></g></g></g><g fill="#000000" fill-opacity="1"><g transform="translate(168.27484, 338.703557)"><g><path d="M 9.601562 -20.816406 L 0.238281 0.0117188 L 5.722656 0.261719 L 7.03125 -2.769531 L 14.191406 -2.441406 L 15.21875 0.699219 L 21.003906 0.960938 L 13.257812 -20.648438 Z M 11.070312 -12.28125 L 12.480469 -7.65625 L 12.582031 -7.289062 L 9.109375 -7.449219 L 9.308594 -7.921875 Z M 11.070312 -12.28125 "/></g></g></g><g fill="#000000" fill-opacity="1"><g transform="translate(190.686016, 339.631407)"><g><path d="M 7.699219 -21.855469 L -0.597656 -21.039062 L 1.460938 -0.144531 L 9.761719 -0.960938 C 16.65625 -1.640625 19.605469 -7.175781 19.089844 -12.402344 C 18.574219 -17.625 14.59375 -22.535156 7.699219 -21.855469 Z M 9.28125 -5.828125 L 6.058594 -5.511719 L 4.953125 -16.703125 L 8.175781 -17.019531 C 11.699219 -17.367188 13.773438 -14.648438 14.046875 -11.902344 C 14.316406 -9.15625 12.800781 -6.175781 9.28125 -5.828125 Z M 9.28125 -5.828125 "/></g></g></g><g fill="#000000" fill-opacity="1"><g transform="translate(213.11612, 337.311561)"><g><path d="M 3.289062 -22.6875 L 0.234375 -0.0585938 L 5.5625 -1.375 L 5.957031 -4.65625 L 12.914062 -6.375 L 14.789062 -3.65625 L 20.410156 -5.046875 L 6.839844 -23.566406 Z M 7.125 -14.921875 L 9.789062 -10.886719 L 9.992188 -10.566406 L 6.617188 -9.730469 L 6.675781 -10.238281 Z M 7.125 -14.921875 "/></g></g></g><g fill="#000000" fill-opacity="1"><g transform="translate(234.323271, 331.682361)"><g/></g></g><g fill="#000000" fill-opacity="1"><g transform="translate(242.315584, 329.065282)"><g><path d="M 0.289062 -23.410156 L -7.429688 -19.882812 L 1.363281 -0.621094 L 6.03125 -2.753906 L 3.4375 -8.429688 L 6.492188 -9.824219 C 10.96875 -11.867188 11.648438 -16.296875 10.117188 -19.652344 C 8.582031 -23.011719 4.765625 -25.453125 0.289062 -23.410156 Z M 4.488281 -14.214844 L 1.433594 -12.820312 L -0.699219 -17.484375 L 2.359375 -18.882812 C 3.804688 -19.542969 5.074219 -18.636719 5.597656 -17.492188 C 6.109375 -16.375 5.933594 -14.875 4.488281 -14.214844 Z M 4.488281 -14.214844 "/></g></g></g><g fill="#000000" fill-opacity="1"><g transform="translate(259.976949, 320.868872)"><g><path d="M -9.648438 -18.707031 L 1.28125 -0.78125 L 13.1875 -8.039062 L 10.613281 -12.265625 L 3.082031 -7.675781 L -5.269531 -21.375 Z M -9.648438 -18.707031 "/></g></g></g><g fill="#000000" fill-opacity="1"><g transform="translate(275.214095, 311.650619)"><g><path d="M -6.546875 -21.96875 L 0.1875 -0.148438 L 4.46875 -3.582031 L 3.449219 -6.726562 L 9.042969 -11.210938 L 11.886719 -9.53125 L 16.402344 -13.152344 L -3.691406 -24.257812 Z M 0.195312 -16.535156 L 4.3125 -13.992188 L 4.632812 -13.785156 L 1.917969 -11.609375 L 1.757812 -12.097656 Z M 0.195312 -16.535156 "/></g></g></g><g fill="#000000" fill-opacity="1"><g transform="translate(292.5681, 297.543589)"><g><path d="M -6.53125 -23.660156 L 1.097656 -16.453125 L -11.515625 -18.382812 L -14.234375 -15.503906 L 1.03125 -1.089844 L 4.53125 -4.796875 L -2.90625 -11.820312 L 9.453125 -10.007812 L 12.210938 -12.929688 L -3.050781 -27.34375 Z M -6.53125 -23.660156 "/></g></g></g><g fill="#000000" fill-opacity="1"><g transform="translate(306.500826, 282.486148)"><g><path d="M 7.996094 -10.722656 L 4.320312 -13.464844 L 2.238281 -10.675781 L -7.257812 -17.761719 L -5.175781 -20.550781 L -8.929688 -23.347656 L -16.15625 -13.65625 L -12.402344 -10.859375 L -10.324219 -13.648438 L -0.828125 -6.566406 L -2.90625 -3.777344 L 0.769531 -1.035156 Z M 7.996094 -10.722656 "/></g></g></g><g fill="#000000" fill-opacity="1"><g transform="translate(315.903833, 269.976024)"><g><path d="M -9.59375 -25.738281 L -17.859375 -11.53125 L -13.710938 -9.121094 L -10.859375 -14.019531 L 3.347656 -5.753906 L 5.925781 -10.1875 L -8.28125 -18.453125 L -5.445312 -23.328125 Z M -9.59375 -25.738281 "/></g></g></g><g fill="#000000" fill-opacity="1"><g transform="translate(325.843013, 252.612953)"><g><path d="M -18.867188 -9.726562 L 0.589844 -1.378906 L 6.054688 -14.113281 L 1.503906 -16.0625 L -1.921875 -8.070312 L -5.011719 -9.394531 L -1.664062 -17.195312 L -6.238281 -19.15625 L -9.585938 -11.355469 L -12.289062 -12.515625 L -8.871094 -20.480469 L -13.417969 -22.433594 Z M -18.867188 -9.726562 "/></g></g></g><g fill="#000000" fill-opacity="1"><g transform="translate(332.999995, 236.068356)"><g><path d="M -5.988281 -9.894531 L 2.148438 -7.589844 L 3.546875 -12.523438 L -4.621094 -14.835938 L -14.082031 -25.339844 L -14.601562 -25.488281 L -16.144531 -20.035156 L -13.695312 -17.347656 L -9.988281 -13.707031 L -14.761719 -12.597656 L -18.566406 -11.492188 L -20.101562 -6.066406 L -19.640625 -5.9375 Z M -5.988281 -9.894531 "/></g></g></g><g fill="#000000" fill-opacity="1"><g transform="translate(338.862998, 214.55473)"><g><path d="M -20.726562 -4.582031 L 0.21875 -1.484375 L 2.246094 -15.191406 L -2.648438 -15.914062 L -3.921875 -7.3125 L -7.246094 -7.800781 L -6.003906 -16.199219 L -10.929688 -16.925781 L -12.167969 -8.53125 L -15.078125 -8.960938 L -13.808594 -17.535156 L -18.707031 -18.257812 Z M -20.726562 -4.582031 "/></g></g></g><g fill="#000000" fill-opacity="1"><g transform="translate(341.33457, 196.963026)"><g><path d="M 1.859375 -4.273438 L -21.621094 -13.398438 L -21.828125 -8.453125 L 1.652344 0.667969 Z M 1.859375 -4.273438 "/></g></g></g><g fill="#000000" fill-opacity="1"><g transform="translate(341.900369, 182.177415)"><g><path d="M -13.6875 0.726562 L -11.082031 -5.324219 L -7.875 0.429688 L -2.574219 0.160156 L -8.859375 -10.632812 L -13.710938 -10.386719 L -19.078125 1 Z M -13.6875 0.726562 "/></g></g></g></svg>