<svg xmlns="http://www.w3.org/2000/svg" xmlns:xlink="http://www.w3.org/1999/xlink" width="500" zoomAndPan="magnify" viewBox="0 0 375 374.999991" height="500" preserveAspectRatio="xMidYMid meet" version="1.0"><defs><clipPath id="b1bee9852d"><path d="M 57.925781 64.023438 L 345.585938 64.023438 L 345.585938 351.683594 L 57.925781 351.683594 Z M 57.925781 64.023438 " clip-rule="nonzero"/></clipPath><clipPath id="f3c7201845"><path d="M 201.757812 64.023438 C 122.320312 64.023438 57.925781 128.417969 57.925781 207.855469 C 57.925781 287.289062 122.320312 351.683594 201.757812 351.683594 C 281.191406 351.683594 345.585938 287.289062 345.585938 207.855469 C 345.585938 128.417969 281.191406 64.023438 201.757812 64.023438 " clip-rule="nonzero"/></clipPath><clipPath id="0196055ee3"><path d="M 131 158 L 278 158 L 278 309.664062 L 131 309.664062 Z M 131 158 " clip-rule="nonzero"/></clipPath><clipPath id="5f771f83ef"><path d="M 189 110.164062 L 220 110.164062 L 220 152 L 189 152 Z M 189 110.164062 " clip-rule="nonzero"/></clipPath><clipPath id="16d3c25c46"><path d="M 259 167 L 284.644531 167 L 284.644531 193 L 259 193 Z M 259 167 " clip-rule="nonzero"/></clipPath><clipPath id="b783963e9d"><path d="M 244 110.164062 L 249 110.164062 L 249 115 L 244 115 Z M 244 110.164062 " clip-rule="nonzero"/></clipPath></defs><g clip-path="url(#b1bee9852d)"><g clip-path="url(#f3c7201845)"><path fill="#000000" d="M 57.925781 64.023438 L 345.585938 64.023438 L 345.585938 351.683594 L 57.925781 351.683594 Z M 57.925781 64.023438 " fill-opacity="1" fill-rule="nonzero"/></g></g><g clip-path="url(#0196055ee3)"><path fill="#ffffff" d="M 270.820312 210.328125 C 273.644531 210.328125 276.242188 208.457031 277.046875 205.597656 C 278.007812 202.148438 276.003906 198.574219 272.5625 197.605469 L 243.082031 189.320312 C 238.128906 160.625 224.390625 158.425781 220.195312 158.46875 C 220.175781 158.46875 220.15625 158.457031 220.132812 158.457031 L 188.910156 158.457031 C 188.886719 158.457031 188.867188 158.472656 188.84375 158.472656 C 184.636719 158.433594 170.921875 160.617188 165.964844 189.320312 L 136.484375 197.605469 C 133.042969 198.574219 131.039062 202.148438 132 205.597656 C 132.804688 208.457031 135.402344 210.328125 138.226562 210.328125 C 138.804688 210.328125 139.386719 210.246094 139.972656 210.085938 L 173.476562 200.667969 C 175.972656 199.964844 177.8125 197.839844 178.140625 195.265625 C 179.199219 187.15625 180.898438 181.78125 182.667969 178.136719 L 182.667969 299.460938 C 182.667969 304.988281 187.140625 309.472656 192.660156 309.472656 C 198.175781 309.472656 202.648438 304.988281 202.648438 299.460938 L 202.648438 226.359375 L 206.394531 226.359375 L 206.394531 299.460938 C 206.394531 304.988281 210.871094 309.472656 216.386719 309.472656 C 221.90625 309.472656 226.378906 304.988281 226.378906 299.460938 L 226.378906 178.132812 C 228.148438 181.78125 229.847656 187.15625 230.90625 195.265625 C 231.238281 197.839844 233.074219 199.964844 235.570312 200.667969 L 269.078125 210.085938 C 269.660156 210.246094 270.246094 210.328125 270.820312 210.328125 Z M 270.820312 210.328125 " fill-opacity="1" fill-rule="nonzero"/></g><g clip-path="url(#5f771f83ef)"><path fill="#ffffff" d="M 199.230469 147.011719 C 199.230469 153.410156 209.816406 153.410156 209.816406 147.011719 C 209.816406 143.355469 212.089844 139.425781 214.042969 136.726562 C 217.160156 134.042969 219.140625 130.070312 219.140625 125.625 C 219.140625 117.539062 212.597656 110.976562 204.523438 110.976562 C 196.449219 110.976562 189.90625 117.539062 189.90625 125.625 C 189.90625 130.070312 191.886719 134.042969 195 136.726562 C 196.957031 139.425781 199.230469 143.355469 199.230469 147.011719 Z M 204.523438 114.007812 C 210.914062 114.007812 216.117188 119.21875 216.117188 125.628906 C 216.117188 129.007812 214.640625 132.214844 212.070312 134.429688 L 211.800781 134.660156 L 211.589844 134.949219 C 210.496094 136.464844 209.65625 137.921875 208.933594 139.351562 L 200.113281 139.351562 C 199.390625 137.921875 198.546875 136.460938 197.449219 134.945312 L 197.242188 134.660156 L 196.976562 134.429688 C 194.40625 132.214844 192.929688 129.007812 192.929688 125.628906 C 192.929688 119.21875 198.128906 114.007812 204.523438 114.007812 Z M 204.523438 114.007812 " fill-opacity="1" fill-rule="nonzero"/></g><path fill="#ffffff" d="M 197.917969 125.480469 C 197.917969 121.714844 200.980469 118.652344 204.738281 118.652344 C 205.1875 118.652344 205.542969 118.289062 205.542969 117.839844 C 205.542969 117.394531 205.1875 117.03125 204.738281 117.03125 C 200.089844 117.03125 196.308594 120.824219 196.308594 125.480469 C 196.308594 125.925781 196.664062 126.292969 197.113281 126.292969 C 197.5625 126.292969 197.917969 125.925781 197.917969 125.480469 Z M 197.917969 125.480469 " fill-opacity="1" fill-rule="nonzero"/><path fill="#ffffff" d="M 127.308594 194.664062 L 139.875 181.953125 C 142.519531 182.964844 145.625 182.398438 147.742188 180.253906 C 149.863281 178.113281 150.398438 174.996094 149.367188 172.355469 L 146.136719 175.621094 C 144.980469 176.789062 143.097656 176.796875 141.933594 175.640625 C 140.765625 174.480469 140.757812 172.59375 141.910156 171.425781 L 145.140625 168.160156 C 142.496094 167.148438 139.394531 167.714844 137.273438 169.859375 C 135.152344 172 134.617188 175.117188 135.652344 177.757812 L 123.082031 190.46875 C 121.925781 191.636719 121.933594 193.523438 123.101562 194.683594 C 124.269531 195.84375 126.152344 195.832031 127.308594 194.664062 Z M 124.351562 191.539062 C 124.824219 191.066406 125.589844 191.066406 126.058594 191.539062 C 126.53125 192.011719 126.53125 192.777344 126.058594 193.25 C 125.589844 193.722656 124.824219 193.722656 124.351562 193.25 C 123.878906 192.777344 123.878906 192.011719 124.351562 191.539062 Z M 124.351562 191.539062 " fill-opacity="1" fill-rule="nonzero"/><g clip-path="url(#16d3c25c46)"><path fill="#ffffff" d="M 280.230469 189.683594 L 281.585938 188.324219 L 280.058594 186.792969 C 280.242188 186.566406 280.375 186.304688 280.542969 186.066406 L 282.464844 187.179688 L 283.425781 185.511719 L 281.621094 184.46875 C 281.75 184.191406 281.835938 183.914062 281.941406 183.628906 L 283.976562 184.175781 L 284.472656 182.316406 L 282.320312 181.738281 C 282.371094 181.449219 282.464844 181.179688 282.492188 180.882812 L 284.660156 180.882812 L 284.660156 178.960938 L 282.492188 178.960938 C 282.464844 178.664062 282.371094 178.394531 282.320312 178.105469 L 284.472656 177.527344 L 283.976562 175.667969 L 281.941406 176.214844 C 281.835938 175.929688 281.75 175.652344 281.621094 175.375 L 283.425781 174.332031 L 282.464844 172.667969 L 280.542969 173.777344 C 280.375 173.539062 280.242188 173.277344 280.058594 173.050781 L 281.585938 171.519531 L 280.230469 170.160156 L 278.699219 171.691406 C 278.476562 171.503906 278.214844 171.371094 277.976562 171.203125 L 279.085938 169.277344 L 277.421875 168.316406 L 276.378906 170.125 C 276.105469 169.996094 275.828125 169.910156 275.542969 169.804688 L 276.085938 167.765625 L 274.234375 167.265625 L 273.65625 169.425781 C 273.367188 169.375 273.097656 169.28125 272.804688 169.25 L 272.804688 167.078125 L 270.882812 167.078125 L 270.882812 169.25 C 270.589844 169.28125 270.320312 169.375 270.03125 169.425781 L 269.453125 167.265625 L 267.597656 167.765625 L 268.144531 169.804688 C 267.859375 169.910156 267.582031 169.996094 267.308594 170.125 L 266.265625 168.316406 L 264.605469 169.277344 L 265.710938 171.203125 C 265.472656 171.371094 265.210938 171.503906 264.988281 171.691406 L 263.457031 170.160156 L 262.101562 171.519531 L 263.632812 173.050781 C 263.445312 173.277344 263.3125 173.539062 263.144531 173.777344 L 261.222656 172.667969 L 260.261719 174.332031 L 262.066406 175.375 C 261.9375 175.652344 261.851562 175.929688 261.75 176.214844 L 259.710938 175.667969 L 259.214844 177.527344 L 261.367188 178.105469 C 261.316406 178.394531 261.222656 178.664062 261.195312 178.960938 L 259.023438 178.960938 L 259.023438 180.882812 L 261.195312 180.882812 C 261.222656 181.179688 261.316406 181.449219 261.367188 181.738281 L 259.214844 182.316406 L 259.710938 184.175781 L 261.75 183.628906 C 261.851562 183.914062 261.9375 184.191406 262.066406 184.46875 L 260.261719 185.511719 L 261.222656 187.179688 L 263.144531 186.066406 C 263.3125 186.304688 263.445312 186.566406 263.632812 186.792969 L 262.101562 188.324219 L 263.457031 189.683594 L 264.988281 188.152344 C 265.210938 188.339844 265.472656 188.472656 265.710938 188.640625 L 264.605469 190.566406 L 266.265625 191.527344 L 267.308594 189.71875 C 267.582031 189.847656 267.859375 189.933594 268.144531 190.039062 L 267.597656 192.082031 L 269.453125 192.578125 L 270.03125 190.421875 C 270.320312 190.472656 270.589844 190.566406 270.882812 190.59375 L 270.882812 192.765625 L 272.804688 192.765625 L 272.804688 190.59375 C 273.097656 190.566406 273.367188 190.472656 273.65625 190.421875 L 274.234375 192.578125 L 276.085938 192.082031 L 275.542969 190.039062 C 275.828125 189.933594 276.105469 189.847656 276.378906 189.71875 L 277.421875 191.527344 L 279.085938 190.566406 L 277.976562 188.640625 C 278.214844 188.472656 278.476562 188.339844 278.699219 188.152344 Z M 271.84375 188.582031 C 267.070312 188.582031 263.203125 184.703125 263.203125 179.921875 C 263.203125 175.140625 267.070312 171.265625 271.84375 171.265625 C 276.613281 171.265625 280.484375 175.140625 280.484375 179.921875 C 280.484375 184.703125 276.613281 188.582031 271.84375 188.582031 Z M 271.84375 188.582031 " fill-opacity="1" fill-rule="nonzero"/></g><path fill="#ffffff" d="M 274.578125 179.921875 C 274.578125 178.410156 273.355469 177.179688 271.84375 177.179688 C 270.332031 177.179688 269.109375 178.410156 269.109375 179.921875 C 269.109375 181.4375 270.332031 182.664062 271.84375 182.664062 C 273.355469 182.664062 274.578125 181.4375 274.578125 179.921875 Z M 274.578125 179.921875 " fill-opacity="1" fill-rule="nonzero"/><path fill="#ffffff" d="M 256.679688 156.695312 C 257.925781 156.695312 258.371094 155.851562 257.667969 154.820312 L 250.867188 144.820312 C 250.167969 143.789062 249.59375 141.925781 249.59375 140.679688 L 249.59375 131.84375 C 249.59375 131.746094 249.574219 131.652344 249.566406 131.558594 L 250.675781 131.558594 L 250.675781 128.867188 L 242.851562 128.867188 L 242.851562 131.558594 L 243.964844 131.558594 C 243.953125 131.652344 243.933594 131.746094 243.933594 131.84375 L 243.933594 140.679688 C 243.933594 141.925781 243.359375 143.789062 242.660156 144.820312 L 235.859375 154.820312 C 235.15625 155.851562 235.601562 156.695312 236.847656 156.695312 Z M 256.679688 156.695312 " fill-opacity="1" fill-rule="nonzero"/><path fill="#ffffff" d="M 245.984375 127.210938 C 246.714844 127.210938 247.304688 126.621094 247.304688 125.890625 C 247.304688 125.160156 246.714844 124.566406 245.984375 124.566406 C 245.253906 124.566406 244.664062 125.160156 244.664062 125.890625 C 244.664062 126.621094 245.253906 127.210938 245.984375 127.210938 Z M 245.984375 127.210938 " fill-opacity="1" fill-rule="nonzero"/><path fill="#ffffff" d="M 242.683594 118.09375 C 242.683594 119.214844 243.59375 120.125 244.710938 120.125 C 245.832031 120.125 246.738281 119.214844 246.738281 118.09375 C 246.738281 116.972656 245.832031 116.0625 244.710938 116.0625 C 243.59375 116.0625 242.683594 116.972656 242.683594 118.09375 Z M 242.683594 118.09375 " fill-opacity="1" fill-rule="nonzero"/><g clip-path="url(#b783963e9d)"><path fill="#ffffff" d="M 248.90625 112.425781 C 248.90625 111.300781 248 110.394531 246.882812 110.394531 C 245.761719 110.394531 244.851562 111.300781 244.851562 112.425781 C 244.851562 113.546875 245.761719 114.457031 246.882812 114.457031 C 248 114.457031 248.90625 113.546875 248.90625 112.425781 Z M 248.90625 112.425781 " fill-opacity="1" fill-rule="nonzero"/></g><path fill="#ffffff" d="M 248.796875 122.613281 C 249.691406 122.613281 250.417969 121.886719 250.417969 120.992188 C 250.417969 120.097656 249.691406 119.371094 248.796875 119.371094 C 247.902344 119.371094 247.179688 120.097656 247.179688 120.992188 C 247.179688 121.886719 247.902344 122.613281 248.796875 122.613281 Z M 248.796875 122.613281 " fill-opacity="1" fill-rule="nonzero"/><path fill="#ffffff" d="M 165.53125 122.105469 L 165.230469 121.53125 L 160.140625 124.183594 L 159.777344 123.597656 L 159.429688 123.046875 L 141.550781 134.199219 L 140.996094 134.539062 L 155.800781 158.394531 L 156.148438 158.945312 L 157.839844 157.890625 L 159.132812 160.164062 L 159.445312 160.726562 L 177.753906 150.292969 L 178.324219 149.972656 L 177.0625 147.753906 L 178.457031 147.027344 Z M 176.421875 146.628906 L 164.457031 125.554688 L 164.140625 124.992188 L 161.558594 126.46875 L 160.824219 125.285156 L 164.679688 123.277344 L 176.722656 146.472656 Z M 159.9375 158.964844 L 147.035156 136.234375 L 163.652344 126.757812 L 176.554688 149.488281 Z M 159.019531 124.835938 L 160.429688 127.109375 L 145.265625 135.753906 L 157.195312 156.757812 L 156.558594 157.15625 L 142.78125 134.957031 Z M 159.019531 124.835938 " fill-opacity="1" fill-rule="nonzero"/><path fill="#ffffff" d="M 150.933594 138.464844 C 151.746094 137.925781 152.761719 137.304688 152.953125 137.234375 C 153.582031 137.109375 155.925781 135.351562 155.949219 135.332031 C 156.242188 135.101562 159.203125 133.4375 159.90625 133.164062 C 160.308594 133.007812 160.96875 132.601562 161.941406 131.996094 C 162.46875 131.664062 163.203125 131.210938 163.375 131.148438 L 163.03125 129.898438 C 162.746094 129.976562 162.296875 130.25 161.253906 130.898438 C 160.589844 131.316406 159.761719 131.835938 159.4375 131.953125 C 158.703125 132.242188 155.5625 133.972656 155.128906 134.328125 C 154.734375 134.648438 152.992188 135.851562 152.699219 135.960938 C 152.382812 136.027344 151.546875 136.503906 150.222656 137.382812 Z M 150.933594 138.464844 " fill-opacity="1" fill-rule="nonzero"/><path fill="#ffffff" d="M 151.996094 140.339844 C 152.800781 139.800781 153.820312 139.175781 154.019531 139.105469 C 154.640625 138.980469 156.984375 137.226562 157.007812 137.207031 C 157.300781 136.976562 160.269531 135.308594 160.96875 135.039062 C 161.371094 134.882812 162.035156 134.476562 163.007812 133.871094 C 163.542969 133.535156 164.269531 133.078125 164.441406 133.015625 L 164.09375 131.765625 C 163.8125 131.851562 163.359375 132.125 162.320312 132.773438 C 161.65625 133.1875 160.820312 133.703125 160.511719 133.828125 C 159.785156 134.109375 156.636719 135.839844 156.195312 136.199219 C 155.769531 136.542969 154.050781 137.726562 153.765625 137.832031 C 153.449219 137.894531 152.613281 138.378906 151.285156 139.257812 Z M 151.996094 140.339844 " fill-opacity="1" fill-rule="nonzero"/><path fill="#ffffff" d="M 158.066406 139.5 C 157.671875 139.820312 155.925781 141.023438 155.636719 141.132812 C 155.320312 141.199219 154.484375 141.675781 153.15625 142.554688 L 153.867188 143.636719 C 154.679688 143.101562 155.699219 142.476562 155.886719 142.40625 C 156.519531 142.28125 158.863281 140.523438 158.886719 140.503906 C 159.179688 140.273438 162.136719 138.609375 162.839844 138.335938 C 163.242188 138.179688 163.90625 137.773438 164.875 137.167969 C 165.40625 136.835938 166.140625 136.382812 166.3125 136.320312 L 165.964844 135.070312 C 165.679688 135.148438 165.230469 135.421875 164.191406 136.070312 C 163.527344 136.488281 162.699219 137.007812 162.375 137.125 C 161.640625 137.414062 158.5 139.144531 158.066406 139.5 Z M 158.066406 139.5 " fill-opacity="1" fill-rule="nonzero"/><path fill="#ffffff" d="M 156.953125 144.277344 C 157.578125 144.152344 159.921875 142.398438 159.945312 142.378906 C 160.234375 142.148438 163.203125 140.480469 163.90625 140.210938 C 164.308594 140.054688 164.972656 139.648438 165.941406 139.042969 C 166.476562 138.707031 167.203125 138.25 167.378906 138.1875 L 167.03125 136.9375 C 166.746094 137.023438 166.296875 137.296875 165.253906 137.945312 C 164.59375 138.359375 163.753906 138.875 163.449219 139 C 162.722656 139.28125 159.574219 141.011719 159.132812 141.371094 C 158.707031 141.714844 156.984375 142.898438 156.699219 143.003906 C 156.386719 143.066406 155.546875 143.550781 154.222656 144.429688 L 154.933594 145.511719 C 155.738281 144.972656 156.757812 144.347656 156.953125 144.277344 Z M 156.953125 144.277344 " fill-opacity="1" fill-rule="nonzero"/><path fill="#ffffff" d="M 158.375 146.777344 C 159.003906 146.652344 161.339844 144.890625 161.355469 144.878906 C 161.65625 144.640625 164.632812 142.972656 165.328125 142.703125 C 165.730469 142.550781 166.390625 142.144531 167.363281 141.539062 C 167.890625 141.207031 168.617188 140.75 168.789062 140.6875 L 168.441406 139.4375 C 168.160156 139.515625 167.710938 139.789062 166.675781 140.4375 C 166.003906 140.859375 165.183594 141.375 164.867188 141.496094 C 164.078125 141.800781 160.960938 143.539062 160.542969 143.871094 C 160.15625 144.191406 158.414062 145.394531 158.121094 145.503906 C 157.796875 145.566406 156.960938 146.046875 155.644531 146.921875 L 156.355469 148.007812 C 157.160156 147.46875 158.175781 146.84375 158.375 146.777344 Z M 158.375 146.777344 " fill-opacity="1" fill-rule="nonzero"/><path fill="#ffffff" d="M 159.429688 148.648438 C 160.070312 148.519531 162.40625 146.769531 162.429688 146.746094 C 162.761719 146.484375 165.738281 144.832031 166.382812 144.578125 C 166.785156 144.425781 167.449219 144.015625 168.417969 143.414062 C 168.957031 143.074219 169.683594 142.617188 169.855469 142.558594 L 169.507812 141.308594 C 169.222656 141.390625 168.773438 141.664062 167.734375 142.308594 C 167.070312 142.726562 166.234375 143.246094 165.917969 143.367188 C 165.175781 143.660156 162.027344 145.398438 161.617188 145.742188 C 161.191406 146.085938 159.460938 147.265625 159.179688 147.375 C 158.863281 147.4375 158.027344 147.917969 156.699219 148.796875 L 157.410156 149.882812 C 158.214844 149.34375 159.234375 148.71875 159.429688 148.648438 Z M 159.429688 148.648438 " fill-opacity="1" fill-rule="nonzero"/><path fill="#ffffff" d="M 161.308594 151.949219 C 161.941406 151.824219 164.277344 150.0625 164.292969 150.050781 C 164.59375 149.8125 167.566406 148.144531 168.261719 147.875 C 168.664062 147.722656 169.328125 147.316406 170.296875 146.710938 C 170.828125 146.378906 171.550781 145.921875 171.726562 145.859375 L 171.378906 144.609375 C 171.09375 144.6875 170.644531 144.960938 169.609375 145.609375 C 168.941406 146.03125 168.121094 146.546875 167.804688 146.667969 C 167.015625 146.972656 163.898438 148.710938 163.480469 149.042969 C 163.09375 149.363281 161.347656 150.566406 161.058594 150.675781 C 160.734375 150.738281 159.898438 151.21875 158.578125 152.09375 L 159.289062 153.179688 C 160.09375 152.640625 161.113281 152.015625 161.308594 151.949219 Z M 161.308594 151.949219 " fill-opacity="1" fill-rule="nonzero"/><path fill="#ffffff" d="M 171.355469 148.585938 C 171.890625 148.246094 172.617188 147.789062 172.792969 147.730469 L 172.445312 146.480469 C 172.160156 146.5625 171.710938 146.835938 170.667969 147.480469 C 170.003906 147.898438 169.167969 148.417969 168.855469 148.539062 C 168.128906 148.824219 164.988281 150.558594 164.554688 150.914062 C 164.125 151.257812 162.398438 152.4375 162.113281 152.546875 C 161.796875 152.609375 160.960938 153.089844 159.636719 153.96875 L 160.347656 155.054688 C 161.152344 154.515625 162.167969 153.890625 162.367188 153.820312 C 163.007812 153.691406 165.34375 151.941406 165.367188 151.921875 C 165.65625 151.6875 168.617188 150.023438 169.320312 149.75 C 169.722656 149.597656 170.382812 149.1875 171.355469 148.585938 Z M 171.355469 148.585938 " fill-opacity="1" fill-rule="nonzero"/><path fill="#ffffff" d="M 145.058594 244.609375 L 166.203125 223.417969 L 170.929688 228.152344 L 177.21875 221.851562 L 172.492188 217.117188 L 174.128906 215.480469 L 171 212.34375 L 169.363281 213.984375 L 164.640625 209.25 L 158.351562 215.550781 L 163.074219 220.285156 L 141.929688 241.476562 Z M 145.058594 244.609375 " fill-opacity="1" fill-rule="nonzero"/><path fill="#ffffff" d="M 263.6875 228.34375 C 263.6875 220.148438 257.058594 213.503906 248.878906 213.503906 C 240.703125 213.503906 234.074219 220.148438 234.074219 228.34375 C 234.074219 236.539062 240.703125 243.179688 248.878906 243.179688 C 257.058594 243.179688 263.6875 236.539062 263.6875 228.34375 Z M 242.507812 229.828125 L 253.457031 218.054688 L 250.417969 226.855469 L 255.253906 226.855469 L 244.304688 238.632812 L 247.34375 229.828125 Z M 242.507812 229.828125 " fill-opacity="1" fill-rule="nonzero"/></svg>